<?xml version="1.0" encoding="utf-8"?>
<!-- Generator: Adobe Illustrator 20.1.0, SVG Export Plug-In . SVG Version: 6.00 Build 0)  -->
<svg version="1.1" id="Layer_1" xmlns="http://www.w3.org/2000/svg" xmlns:xlink="http://www.w3.org/1999/xlink" x="0px" y="0px"
	 viewBox="0 0 1024 1024" style="enable-background:new 0 0 1024 1024;" xml:space="preserve">
<style type="text/css">
	.st0{fill:#FDF2E9;stroke:#FFFFFF;stroke-miterlimit:10;}
</style>
<circle class="st0" cx="511.7" cy="512" r="511"/>
<g>
	<path d="M495,716.3c1.1,5.4,1,11.1-0.5,16.5c-1.4,5.1-4.1,9.8-7.9,13.8c-12.7,12.8-33.5,13.1-46.4,0.6l-64.3-62.7l-12.4,15.1
		l64.3,62.8c17.6,17.1,55.7,15.9,72.9-1.5c6-6.1,14.4-19.9,16.2-28l169.5,0.1c18.3,0,36.3,17,36.3,35.2c0,18.4-11.9,40.9-37.1,40.9
		H414.2c-11.7-0.4-26.4-6.4-36.7-15.1L235.7,687.6l-82.6,0.4l-0.2-123.6h0.7v-1.1h164.8c0,0,17.3,0.4,29.2,7.3
		c10.9,6.4,20.7,15.8,20.7,15.8l117.6,114.2C490.3,704.7,493.5,710.2,495,716.3L495,716.3z"/>
	<path d="M810.8,535.6c1.1-2.1,2.6-4.1,3.4-6.5c5.6-15,4.9-31.4-2.1-46.2c-6.2-13.2-17.1-24.2-30.5-30.8c1.5-27.2-15.9-53.1-44.3-63
		c-13.2-4.6-27.6-5-40.8-1.5c-7.9-10.9-19.2-19.3-32.6-24c-7.4-2.6-15.2-3.9-23-3.9c-25.7,0-48.9,14.4-59,36.5
		c-26.6,0.6-50.3,16.6-59.1,40.2c-2.5,6.6-3.7,13.5-3.7,20.4c-24,2.7-44.8,18-52.9,39.9c-4.8,12.8-4.7,26.4-0.6,38.9h-65.7
		l139.3,160.1h200.5l133.3-160.1L810.8,535.6L810.8,535.6z M495.5,507.6c5.3-14.1,22.4-22.6,39.1-19.1l28.2,5.9l-10.5-26.9
		c-2.6-6.7-2.7-13.6-0.2-20.1c5.1-13.9,21.4-22.5,38.1-19.3l15.2,2.7l2.9-15.2c0.3-1.5,0.7-3.1,1.2-4.5
		c5.8-15.6,26.2-24.1,44.1-17.9c9.9,3.4,17.7,10.6,21.2,19.6l6.5,16.4l15.5-8.4c8.9-4.8,20-5.7,30.1-2.2c17.4,6,27.1,23.1,22,38.8
		l-5.1,15.8l16.2,4.1c1,0.3,2,0.5,3.1,0.9c9.2,3.2,16.6,9.7,20.6,17.9c3.3,7.1,3.6,14.9,1,22c-3,8.1-9.7,14.3-18.6,17.4l-265.8,0
		C494,527.4,492,517,495.5,507.6L495.5,507.6z"/>
	<path d="M576.4,359.8h-16.9v-97.7h16.9V359.8z"/>
	<path d="M626.7,324.4h-16.9V194.7h16.9V324.4z"/>
	<path d="M677,333.5h-17v-82.8h17V333.5z"/>
</g>
</svg>
